<?xml version="1.0" encoding="utf-8" standalone="no"?>
<!DOCTYPE svg PUBLIC "-//W3C//DTD SVG 1.1//EN"
  "http://www.w3.org/Graphics/SVG/1.1/DTD/svg11.dtd">
<svg xmlns:xlink="http://www.w3.org/1999/xlink" width="558.72pt" height="558.72pt" viewBox="0 0 558.72 558.72" xmlns="http://www.w3.org/2000/svg" version="1.1">
 <metadata>
  <rdf:RDF xmlns:dc="http://purl.org/dc/elements/1.1/" xmlns:cc="http://creativecommons.org/ns#" xmlns:rdf="http://www.w3.org/1999/02/22-rdf-syntax-ns#">
   <cc:Work>
    <dc:type rdf:resource="http://purl.org/dc/dcmitype/StillImage"/>
    <dc:date>2026-06-04T00:46:01.637490</dc:date>
    <dc:format>image/svg+xml</dc:format>
    <dc:creator>
     <cc:Agent>
      <dc:title>Matplotlib v3.9.4, https://matplotlib.org/</dc:title>
     </cc:Agent>
    </dc:creator>
   </cc:Work>
  </rdf:RDF>
 </metadata>
 <defs>
  <style type="text/css">*{stroke-linejoin: round; stroke-linecap: butt}</style>
 </defs>
 <g id="figure_1">
  <g id="patch_1">
   <path d="M 0 558.72 
L 558.72 558.72 
L 558.72 0 
L 0 0 
L 0 558.72 
z
" style="fill: none; opacity: 0"/>
  </g>
  <g id="axes_1">
   <g id="patch_2">
    <path d="M 155.233999 138.566777 
C 138.882704 152.982385 125.166969 170.136926 114.702996 189.259683 
C 104.239022 208.382445 97.185876 229.18273 93.860422 250.726083 
C 90.534956 272.269436 90.987763 294.228312 95.198446 315.616271 
C 99.40914 337.004229 107.313752 357.496144 118.557119 376.171297 
C 129.800487 394.846455 144.211664 411.420965 161.143304 425.150292 
C 178.074944 438.87962 197.26962 449.555005 217.864982 456.696847 
C 238.460341 463.838689 260.143303 467.338434 281.939746 467.038819 
C 303.73619 466.739216 325.314773 462.644828 345.706051 454.939601 
C 366.097329 447.234375 384.99131 436.035445 401.539194 421.845927 
C 418.087077 407.656409 432.037292 390.692012 442.7631 371.714873 
C 453.488907 352.737734 460.827281 332.036347 464.448513 310.540732 
C 468.069744 289.045119 467.918801 267.082093 464.002464 245.638282 
C 460.086126 224.194471 452.463912 203.595864 441.478284 184.76794 
C 430.492656 165.940015 416.310611 149.168984 399.569272 135.208253 
C 382.827933 121.247521 363.781761 110.309306 343.286506 102.885078 
C 322.79125 95.460851 301.158494 91.663448 279.359992 91.663448 
L 279.359995 170.496 
C 292.003127 170.496 304.550125 172.698493 316.437373 177.004545 
C 328.324621 181.310598 339.371401 187.654762 349.081378 195.751987 
C 358.791355 203.849211 367.01694 213.576409 373.388605 224.496605 
C 379.760269 235.416801 384.181153 247.363993 386.452629 259.801404 
C 388.724105 272.238814 388.811652 284.977369 386.711337 297.444824 
C 384.611023 309.912281 380.354766 321.919086 374.133798 332.925826 
C 367.912829 343.932567 359.821705 353.771917 350.223932 362.001838 
C 340.62616 370.231758 329.667651 376.727138 317.840709 381.196169 
C 306.013768 385.6652 293.49819 388.039945 280.856252 388.213715 
C 268.214315 388.387492 255.638198 386.357639 243.692889 382.215371 
C 231.74758 378.073103 220.614667 371.88138 210.794316 363.91837 
C 200.973965 355.95536 192.615482 346.342144 186.094329 335.510552 
C 179.573176 324.678964 174.988501 312.793653 172.546299 300.388637 
C 170.104102 287.983621 169.841475 275.247473 171.770245 262.752328 
C 173.699008 250.257183 177.789833 238.193018 183.858937 227.101816 
C 189.928042 216.010617 197.883168 206.060983 207.366919 197.699931 
z
" style="fill: #b8842c; stroke: #141414; stroke-width: 2.5; stroke-linejoin: miter"/>
   </g>
   <g id="patch_3">
    <path d="M 226.99431 99.116193 
C 213.768446 102.958659 201.005597 108.245208 188.936462 114.880274 
C 176.867334 121.515341 165.565074 129.458706 155.233999 138.566777 
L 207.366919 197.699931 
C 213.358943 192.417249 219.914253 187.810098 226.914348 183.961759 
C 233.914446 180.11342 241.316899 177.047222 248.9879 174.818592 
z
" style="fill: #4a90d9; stroke: #141414; stroke-width: 2.5; stroke-linejoin: miter"/>
   </g>
   <g id="patch_4">
    <path d="M 279.360002 91.663448 
C 270.511327 91.663448 261.673715 92.289181 252.913318 93.535971 
C 244.15292 94.78276 235.491637 96.647496 226.99431 99.116193 
L 248.9879 174.818592 
C 253.916349 173.386747 258.939894 172.305201 264.020924 171.582063 
C 269.101955 170.858925 274.22777 170.496 279.360001 170.496 
z
" style="fill: #3aa876; stroke: #141414; stroke-width: 2.5; stroke-linejoin: miter"/>
   </g>
   <g id="text_1">
    <!-- 97.4% -->
    <g style="fill: #ffffff" transform="translate(291.249929 424.669464) scale(0.26 -0.26)">
     <defs>
      <path id="Pretendard-Bold-39" d="M 1994 4588 
Q 2497 4588 2911 4370 
Q 3325 4153 3578 3661 
Q 3831 3169 3831 2381 
Q 3834 1622 3606 1070 
Q 3378 519 2958 228 
Q 2538 -63 1969 -63 
Q 1522 -63 1170 109 
Q 819 281 605 586 
Q 391 891 344 1275 
L 1269 1275 
Q 1325 1025 1511 884 
Q 1697 744 1969 744 
Q 2428 744 2670 1128 
Q 2913 1513 2913 2200 
L 2875 2200 
Q 2716 1900 2405 1731 
Q 2094 1563 1713 1563 
Q 1313 1563 989 1750 
Q 666 1938 481 2270 
Q 297 2603 294 3019 
Q 294 3469 506 3826 
Q 719 4184 1106 4386 
Q 1494 4588 1994 4588 
z
M 2013 3850 
Q 1788 3850 1605 3744 
Q 1422 3638 1317 3456 
Q 1213 3275 1213 3056 
Q 1213 2831 1314 2647 
Q 1416 2463 1597 2356 
Q 1778 2250 2006 2250 
Q 2231 2250 2417 2358 
Q 2603 2466 2711 2650 
Q 2819 2834 2819 3050 
Q 2816 3266 2709 3448 
Q 2603 3631 2420 3740 
Q 2238 3850 2013 3850 
z
" transform="scale(0.015625)"/>
      <path id="Pretendard-Bold-37" d="M 2438 3725 
L 2438 3756 
L 219 3756 
L 219 4525 
L 3413 4525 
L 3413 3744 
L 1506 0 
L 531 0 
L 2438 3725 
z
" transform="scale(0.015625)"/>
      <path id="Pretendard-Bold-2e" d="M 906 -56 
Q 763 -56 641 16 
Q 519 88 448 208 
Q 378 328 381 469 
Q 378 609 448 728 
Q 519 847 641 917 
Q 763 988 906 988 
Q 1041 988 1161 917 
Q 1281 847 1353 728 
Q 1425 609 1425 469 
Q 1425 328 1353 208 
Q 1281 88 1161 16 
Q 1041 -56 906 -56 
z
" transform="scale(0.015625)"/>
      <path id="Pretendard-Bold-34" d="M 281 1544 
L 2194 4525 
L 3375 4525 
L 3375 1556 
L 3950 1556 
L 3950 800 
L 3375 800 
L 3375 0 
L 2481 0 
L 2481 800 
L 281 800 
L 281 1544 
z
M 2494 1556 
L 2494 3494 
L 2450 3494 
L 1231 1594 
L 1231 1556 
L 2494 1556 
z
" transform="scale(0.015625)"/>
      <path id="Pretendard-Bold-25" d="M 1544 2263 
Q 1213 2263 978 2414 
Q 744 2566 622 2837 
Q 500 3109 500 3469 
Q 500 3828 623 4103 
Q 747 4378 983 4529 
Q 1219 4681 1544 4681 
Q 1878 4681 2111 4529 
Q 2344 4378 2464 4104 
Q 2584 3831 2588 3469 
Q 2584 3106 2462 2834 
Q 2341 2563 2106 2413 
Q 1872 2263 1544 2263 
z
M 1544 2819 
Q 1741 2819 1842 2994 
Q 1944 3169 1950 3469 
Q 1944 3775 1845 3950 
Q 1747 4125 1544 4125 
Q 1347 4125 1242 3945 
Q 1138 3766 1138 3469 
Q 1138 3172 1244 2995 
Q 1350 2819 1544 2819 
z
M 4594 -150 
Q 4266 -150 4031 1 
Q 3797 153 3676 425 
Q 3556 697 3556 1056 
Q 3556 1416 3679 1691 
Q 3803 1966 4037 2117 
Q 4272 2269 4594 2269 
Q 4928 2269 5162 2117 
Q 5397 1966 5519 1692 
Q 5641 1419 5644 1056 
Q 5641 694 5519 422 
Q 5397 150 5161 0 
Q 4925 -150 4594 -150 
z
M 4594 406 
Q 4794 406 4897 578 
Q 5000 750 5006 1056 
Q 5000 1363 4900 1536 
Q 4800 1709 4594 1706 
Q 4403 1706 4298 1528 
Q 4194 1350 4194 1056 
Q 4194 756 4298 581 
Q 4403 406 4594 406 
z
M 4263 4525 
L 4963 4525 
L 1850 0 
L 1150 0 
L 4263 4525 
z
" transform="scale(0.015625)"/>
     </defs>
     <use xlink:href="#Pretendard-Bold-39"/>
     <use xlink:href="#Pretendard-Bold-37" x="64.257812"/>
     <use xlink:href="#Pretendard-Bold-2e" x="121.777344"/>
     <use xlink:href="#Pretendard-Bold-34" x="150"/>
     <use xlink:href="#Pretendard-Bold-25" x="215.722656"/>
    </g>
   </g>
   <g id="text_2">
    <!-- 1.9% -->
    <g style="fill: #ffffff" transform="translate(187.919858 153.737425) scale(0.17 -0.17)">
     <defs>
      <path id="Pretendard-Bold-31" d="M 2306 0 
L 1363 0 
L 1363 3631 
L 1338 3631 
L 300 2981 
L 300 3813 
L 1419 4525 
L 2306 4525 
L 2306 0 
z
" transform="scale(0.015625)"/>
     </defs>
     <use xlink:href="#Pretendard-Bold-31"/>
     <use xlink:href="#Pretendard-Bold-2e" x="46.875"/>
     <use xlink:href="#Pretendard-Bold-39" x="75.097656"/>
     <use xlink:href="#Pretendard-Bold-25" x="139.355469"/>
    </g>
   </g>
   <g id="text_3">
    <!-- 0.7% -->
    <g style="fill: #ffffff" transform="translate(239.885871 136.367604) scale(0.15 -0.15)">
     <defs>
      <path id="Pretendard-Bold-30" d="M 2113 -63 
Q 1547 -63 1139 210 
Q 731 484 512 1006 
Q 294 1528 294 2263 
Q 294 2997 512 3519 
Q 731 4041 1139 4314 
Q 1547 4588 2113 4588 
Q 2675 4588 3084 4314 
Q 3494 4041 3712 3517 
Q 3931 2994 3931 2263 
Q 3931 1525 3712 1003 
Q 3494 481 3086 209 
Q 2678 -63 2113 -63 
z
M 2113 713 
Q 2375 713 2567 881 
Q 2759 1050 2864 1390 
Q 2969 1731 2969 2231 
Q 2969 3009 2744 3414 
Q 2519 3819 2113 3819 
Q 1706 3819 1481 3414 
Q 1256 3009 1256 2231 
Q 1256 1731 1361 1390 
Q 1466 1050 1658 881 
Q 1850 713 2113 713 
z
" transform="scale(0.015625)"/>
     </defs>
     <use xlink:href="#Pretendard-Bold-30"/>
     <use xlink:href="#Pretendard-Bold-2e" x="66.015625"/>
     <use xlink:href="#Pretendard-Bold-37" x="94.238281"/>
     <use xlink:href="#Pretendard-Bold-25" x="151.757812"/>
    </g>
   </g>
   <g id="text_4">
    <!-- 426.75M -->
    <g style="fill: #d1d4dc" transform="translate(193.813125 270.746595) scale(0.4 -0.4)">
     <defs>
      <path id="Pretendard-Bold-32" d="M 350 681 
L 1975 2175 
Q 2216 2406 2348 2559 
Q 2481 2713 2553 2864 
Q 2625 3016 2625 3188 
Q 2625 3384 2533 3531 
Q 2441 3678 2277 3758 
Q 2113 3838 1906 3838 
Q 1588 3838 1397 3648 
Q 1206 3459 1206 3138 
L 313 3138 
Q 309 3575 511 3903 
Q 713 4231 1078 4409 
Q 1444 4588 1919 4588 
Q 2397 4588 2762 4417 
Q 3128 4247 3329 3944 
Q 3531 3641 3531 3250 
Q 3531 2984 3428 2739 
Q 3325 2494 3070 2192 
Q 2816 1891 2350 1469 
L 1663 800 
L 1663 775 
L 3594 775 
L 3594 0 
L 356 0 
L 350 681 
z
" transform="scale(0.015625)"/>
      <path id="Pretendard-Bold-36" d="M 2119 -63 
Q 1613 -63 1200 154 
Q 788 372 534 867 
Q 281 1363 281 2156 
Q 281 2909 509 3457 
Q 738 4006 1159 4297 
Q 1581 4588 2144 4588 
Q 2588 4588 2941 4416 
Q 3294 4244 3508 3944 
Q 3722 3644 3769 3269 
L 2844 3269 
Q 2788 3509 2602 3645 
Q 2416 3781 2144 3781 
Q 1691 3781 1448 3398 
Q 1206 3016 1200 2338 
L 1244 2338 
Q 1397 2634 1709 2804 
Q 2022 2975 2400 2975 
Q 2803 2975 3126 2786 
Q 3450 2597 3634 2264 
Q 3819 1931 3819 1513 
Q 3819 1059 3605 701 
Q 3391 344 3003 140 
Q 2616 -63 2119 -63 
z
M 2100 681 
Q 2328 681 2512 787 
Q 2697 894 2801 1078 
Q 2906 1263 2906 1488 
Q 2906 1709 2804 1893 
Q 2703 2078 2522 2186 
Q 2341 2294 2113 2294 
Q 1884 2294 1698 2186 
Q 1513 2078 1405 1892 
Q 1297 1706 1294 1488 
Q 1297 1266 1401 1081 
Q 1506 897 1690 789 
Q 1875 681 2100 681 
z
" transform="scale(0.015625)"/>
      <path id="Pretendard-Bold-35" d="M 2019 -63 
Q 1553 -63 1179 109 
Q 806 281 592 586 
Q 378 891 369 1275 
L 1281 1275 
Q 1291 1100 1391 965 
Q 1491 831 1656 756 
Q 1822 681 2019 681 
Q 2250 681 2433 782 
Q 2616 884 2717 1067 
Q 2819 1250 2819 1481 
Q 2819 1719 2716 1903 
Q 2613 2088 2427 2192 
Q 2241 2297 2006 2300 
Q 1497 2300 1294 1919 
L 444 1919 
L 688 4525 
L 3475 4525 
L 3475 3756 
L 1463 3756 
L 1338 2613 
L 1375 2613 
Q 1503 2784 1745 2889 
Q 1988 2994 2281 2994 
Q 2694 2994 3023 2803 
Q 3353 2613 3542 2273 
Q 3731 1934 3731 1506 
Q 3731 1053 3515 697 
Q 3300 341 2911 139 
Q 2522 -63 2019 -63 
z
" transform="scale(0.015625)"/>
      <path id="Pretendard-Bold-4d" d="M 1544 4525 
L 2800 1456 
L 2850 1456 
L 4106 4525 
L 5269 4525 
L 5269 0 
L 4356 0 
L 4356 2963 
L 4319 2963 
L 3138 19 
L 2513 19 
L 1331 2975 
L 1294 2975 
L 1294 0 
L 381 0 
L 381 4525 
L 1544 4525 
z
" transform="scale(0.015625)"/>
     </defs>
     <use xlink:href="#Pretendard-Bold-34"/>
     <use xlink:href="#Pretendard-Bold-32" x="65.722656"/>
     <use xlink:href="#Pretendard-Bold-36" x="126.757812"/>
     <use xlink:href="#Pretendard-Bold-2e" x="191.015625"/>
     <use xlink:href="#Pretendard-Bold-37" x="219.238281"/>
     <use xlink:href="#Pretendard-Bold-35" x="276.757812"/>
     <use xlink:href="#Pretendard-Bold-4d" x="339.453125"/>
    </g>
   </g>
   <g id="text_5">
    <!-- NXPC remaining -->
    <g style="fill: #787b86" transform="translate(217.84125 311.810733) scale(0.16 -0.16)">
     <defs>
      <path id="Pretendard-Bold-4e" d="M 4156 0 
L 3344 0 
L 1356 2875 
L 1319 2875 
L 1319 0 
L 381 0 
L 381 4525 
L 1206 4525 
L 3181 1650 
L 3225 1650 
L 3225 4525 
L 4156 4525 
L 4156 0 
z
" transform="scale(0.015625)"/>
      <path id="Pretendard-Bold-58" d="M 2175 2969 
L 2206 2969 
L 3138 4525 
L 4200 4525 
L 2819 2263 
L 4231 0 
L 3144 0 
L 2206 1556 
L 2175 1556 
L 1238 0 
L 156 0 
L 1575 2263 
L 181 4525 
L 1250 4525 
L 2175 2969 
z
" transform="scale(0.015625)"/>
      <path id="Pretendard-Bold-50" d="M 381 4525 
L 2156 4525 
Q 2663 4525 3028 4333 
Q 3394 4141 3584 3795 
Q 3775 3450 3775 3000 
Q 3775 2547 3579 2201 
Q 3384 1856 3014 1665 
Q 2644 1475 2131 1475 
L 1319 1475 
L 1319 0 
L 381 0 
L 381 4525 
z
M 1981 2231 
Q 2388 2231 2597 2439 
Q 2806 2647 2806 3000 
Q 2806 3350 2597 3553 
Q 2388 3756 1981 3756 
L 1319 3756 
L 1319 2231 
L 1981 2231 
z
" transform="scale(0.015625)"/>
      <path id="Pretendard-Bold-43" d="M 3406 2950 
Q 3369 3197 3234 3380 
Q 3100 3563 2890 3659 
Q 2681 3756 2419 3756 
Q 2066 3756 1802 3579 
Q 1538 3403 1394 3067 
Q 1250 2731 1250 2263 
Q 1250 1784 1394 1448 
Q 1538 1113 1800 941 
Q 2063 769 2413 769 
Q 2803 769 3070 975 
Q 3338 1181 3406 1544 
L 4356 1538 
Q 4303 1109 4053 743 
Q 3803 378 3378 157 
Q 2953 -63 2400 -63 
Q 1791 -63 1312 214 
Q 834 491 564 1016 
Q 294 1541 294 2263 
Q 294 2981 567 3507 
Q 841 4034 1320 4311 
Q 1800 4588 2400 4588 
Q 2922 4588 3344 4394 
Q 3766 4200 4030 3829 
Q 4294 3459 4356 2950 
L 3406 2950 
z
" transform="scale(0.015625)"/>
      <path id="Pretendard-Bold-20" transform="scale(0.015625)"/>
      <path id="Pretendard-Bold-72" d="M 363 3394 
L 1256 3394 
L 1256 2806 
L 1294 2806 
Q 1384 3116 1603 3280 
Q 1822 3444 2113 3444 
Q 2272 3444 2406 3413 
L 2406 2588 
Q 2338 2606 2222 2622 
Q 2106 2638 2013 2638 
Q 1806 2638 1640 2547 
Q 1475 2456 1381 2295 
Q 1288 2134 1288 1931 
L 1288 0 
L 363 0 
L 363 3394 
z
" transform="scale(0.015625)"/>
      <path id="Pretendard-Bold-65" d="M 1900 -69 
Q 1384 -69 1007 143 
Q 631 356 428 751 
Q 225 1147 225 1681 
Q 225 2203 426 2601 
Q 628 3000 1000 3219 
Q 1372 3438 1863 3438 
Q 2319 3438 2680 3245 
Q 3041 3053 3248 2665 
Q 3456 2278 3456 1719 
L 3456 1456 
L 1138 1456 
Q 1138 1203 1233 1015 
Q 1328 828 1504 726 
Q 1681 625 1919 625 
Q 2147 625 2312 717 
Q 2478 809 2550 969 
L 3431 969 
Q 3366 656 3162 422 
Q 2959 188 2636 59 
Q 2313 -69 1900 -69 
z
M 2581 2038 
Q 2581 2241 2492 2402 
Q 2403 2563 2243 2653 
Q 2084 2744 1881 2744 
Q 1675 2744 1508 2650 
Q 1341 2556 1242 2393 
Q 1144 2231 1138 2038 
L 2581 2038 
z
" transform="scale(0.015625)"/>
      <path id="Pretendard-Bold-6d" d="M 363 3394 
L 1244 3394 
L 1244 2800 
L 1281 2800 
Q 1391 3097 1637 3267 
Q 1884 3438 2225 3438 
Q 2575 3438 2820 3267 
Q 3066 3097 3150 2800 
L 3181 2800 
Q 3291 3094 3562 3266 
Q 3834 3438 4206 3438 
Q 4522 3438 4764 3302 
Q 5006 3166 5140 2905 
Q 5275 2644 5275 2281 
L 5275 0 
L 4350 0 
L 4350 2100 
Q 4350 2381 4204 2528 
Q 4059 2675 3819 2675 
Q 3559 2675 3414 2511 
Q 3269 2347 3269 2075 
L 3269 0 
L 2369 0 
L 2369 2125 
Q 2369 2375 2225 2525 
Q 2081 2675 1844 2675 
Q 1688 2675 1561 2595 
Q 1434 2516 1361 2372 
Q 1288 2228 1288 2038 
L 1288 0 
L 363 0 
L 363 3394 
z
" transform="scale(0.015625)"/>
      <path id="Pretendard-Bold-61" d="M 200 950 
Q 200 1475 553 1719 
Q 906 1963 1463 1994 
Q 1806 2016 2306 2038 
L 2306 2313 
Q 2300 2525 2159 2644 
Q 2019 2763 1763 2763 
Q 1531 2763 1384 2663 
Q 1238 2563 1200 2388 
L 319 2388 
Q 347 2688 526 2925 
Q 706 3163 1028 3300 
Q 1350 3438 1788 3438 
Q 2175 3438 2501 3316 
Q 2828 3194 3026 2936 
Q 3225 2678 3225 2288 
L 3225 0 
L 2350 0 
L 2350 469 
L 2325 469 
Q 2191 222 1942 79 
Q 1694 -63 1331 -63 
Q 1000 -63 745 51 
Q 491 166 345 394 
Q 200 622 200 950 
z
M 1088 975 
Q 1088 784 1227 679 
Q 1366 575 1594 575 
Q 1800 575 1964 659 
Q 2128 744 2218 891 
Q 2309 1038 2306 1213 
L 2306 1459 
Q 2159 1456 1943 1443 
Q 1728 1431 1613 1419 
Q 1369 1394 1228 1281 
Q 1088 1169 1088 975 
z
" transform="scale(0.015625)"/>
      <path id="Pretendard-Bold-69" d="M 363 3394 
L 1288 3394 
L 1288 0 
L 363 0 
L 363 3394 
z
M 825 3838 
Q 688 3838 570 3902 
Q 453 3966 386 4073 
Q 319 4181 319 4306 
Q 319 4434 386 4543 
Q 453 4653 570 4717 
Q 688 4781 825 4781 
Q 959 4781 1075 4717 
Q 1191 4653 1258 4543 
Q 1325 4434 1325 4306 
Q 1325 4181 1258 4073 
Q 1191 3966 1075 3902 
Q 959 3838 825 3838 
z
" transform="scale(0.015625)"/>
      <path id="Pretendard-Bold-6e" d="M 1288 0 
L 363 0 
L 363 3394 
L 1244 3394 
L 1244 2800 
L 1281 2800 
Q 1400 3100 1665 3269 
Q 1931 3438 2300 3438 
Q 2653 3438 2918 3284 
Q 3184 3131 3328 2842 
Q 3472 2553 3469 2163 
L 3469 0 
L 2550 0 
L 2550 2000 
Q 2550 2313 2387 2491 
Q 2225 2669 1938 2669 
Q 1641 2669 1464 2481 
Q 1288 2294 1288 1963 
L 1288 0 
z
" transform="scale(0.015625)"/>
      <path id="Pretendard-Bold-67" d="M 1888 -1344 
Q 1425 -1344 1081 -1212 
Q 738 -1081 542 -842 
Q 347 -603 319 -281 
L 1231 -281 
Q 1269 -478 1445 -576 
Q 1622 -675 1906 -675 
Q 2247 -675 2436 -517 
Q 2625 -359 2625 -19 
L 2625 600 
L 2581 600 
Q 2475 366 2233 208 
Q 1991 50 1613 50 
Q 1219 50 906 236 
Q 594 422 412 797 
Q 231 1172 231 1719 
Q 231 2275 415 2662 
Q 600 3050 914 3244 
Q 1228 3438 1613 3438 
Q 1997 3438 2231 3259 
Q 2466 3081 2581 2825 
L 2619 2825 
L 2619 3394 
L 3538 3394 
L 3538 -38 
Q 3538 -459 3328 -753 
Q 3119 -1047 2747 -1195 
Q 2375 -1344 1888 -1344 
z
M 1900 744 
Q 2244 744 2434 998 
Q 2625 1253 2625 1706 
Q 2625 2166 2434 2433 
Q 2244 2700 1900 2700 
Q 1556 2700 1368 2429 
Q 1181 2159 1181 1706 
Q 1181 1259 1367 1001 
Q 1553 744 1900 744 
z
" transform="scale(0.015625)"/>
     </defs>
     <use xlink:href="#Pretendard-Bold-4e"/>
     <use xlink:href="#Pretendard-Bold-58" x="70.898438"/>
     <use xlink:href="#Pretendard-Bold-50" x="139.453125"/>
     <use xlink:href="#Pretendard-Bold-43" x="201.757812"/>
     <use xlink:href="#Pretendard-Bold-20" x="274.121094"/>
     <use xlink:href="#Pretendard-Bold-72" x="297.167969"/>
     <use xlink:href="#Pretendard-Bold-65" x="336.132812"/>
     <use xlink:href="#Pretendard-Bold-6d" x="393.554688"/>
     <use xlink:href="#Pretendard-Bold-61" x="481.445312"/>
     <use xlink:href="#Pretendard-Bold-69" x="537.207031"/>
     <use xlink:href="#Pretendard-Bold-6e" x="562.890625"/>
     <use xlink:href="#Pretendard-Bold-69" x="622.65625"/>
     <use xlink:href="#Pretendard-Bold-6e" x="648.339844"/>
     <use xlink:href="#Pretendard-Bold-67" x="708.105469"/>
    </g>
   </g>
  </g>
 </g>
</svg>
